<svg width="375" height="35" viewBox="0 0 375 35" fill="none" xmlns="http://www.w3.org/2000/svg">
<path d="M131.675 25.1603L130.768 25.825L131.675 25.1603ZM271.273 35L269.75 33.2212L269.825 30.2308L268.854 28.4712L268.446 26.8687L267.051 26.239L265.935 23.6275L264.408 22.1651L262.661 21.4706L261.032 21.0441L258.636 20.5831L258.595 23.1293L257.892 25.4344L256.658 24.7393L255.948 27.8162L254.001 26.7388L252.499 28.4782L250.452 27.9235L249.179 25.0598L248.282 23.3394L246.856 23.2825L245.607 24.203L243.864 24.3198L242.278 24.1694L240.689 24.9606L239.101 24.5391L237.701 24.3754L236.255 25.284L234.819 24.8574L233.547 23.2622L231.739 23.241L230.323 21.0983L228.291 21.7778L226.937 20.4222L225.291 19.8676L223.772 21.1889L222.344 22.7765L220.422 22.5346L219.46 24.9248L218.445 27.646L216.857 28.3389L215.1 27.05L213.623 27.7255L213.617 29.1184L211.916 28.0389L210.24 27.4422L209.289 27.0886L208.681 25.7802L207.46 25.433L206.701 23.8249L206.205 23.5313L206.011 23.8413L204.767 28.3853L202.779 26.7002L201.093 27.2799L200.245 27.9307L198.543 27.5098L197.021 28.5738L195.476 27.4562L194.031 26.2968L192.802 24.6557L191.397 24.1869L189.289 24.8355L189.86 23.1623L187.646 22.8187L185.681 21.425L185.135 20.8058L184.178 20.5058L183.627 22.4462L183.045 20.6315L181.766 22.0525L181.034 22.2268L179.834 24.3873L178.259 21.9071L177.884 23.2002L176.239 24.2803L175.242 22.6099L174.688 22.6669L174.122 24.0056L172.812 27.1436L171.164 27.4681L169.611 28.2532L167.988 27.2701L166.411 27.5181L165.045 28.8429L163.05 26.0085L162.339 27.1584L161.139 27.2807L161.232 25.6571L160.173 25.2447L158.089 23.8672L156.645 22.832L155.023 24.5005L153.612 24.3528L151.898 22.8665L151.638 23.4126L150.777 25.9101L149.47 24.4315L149.428 25.2397L148.185 26.4828L147.247 28.0959L146.126 29.2091L144.864 27.9433L144.364 27.7494L144.021 28.1985L142.941 27.9166L141.555 30.5161L140.042 28.6391L138.367 28.0247L137.704 27.8963L137.094 26.2209L135.293 26.4794L134.969 26.249L133.985 26.3402L132.912 25.525L131.525 24.5327L130.47 27.055L129.409 28.5266L128.193 30.488L126.65 31.4038L125.274 28.9503L123.684 29.8107L123.231 29.3376L123.026 29.7003L121.262 27.4147L120.147 27.088L119.915 26.738L118.154 25.8667L116.179 25.9629L114.976 23.8546L114.17 23.5432L113.648 22.9494L111.476 23.4412L110.228 22.1103L109.273 23.813L108.038 23.4259L107.587 24.0576L106.952 26.4639L105.779 25.6487L104.207 26.227L103.272 28.7003L101.725 29.1852L100.192 29.6539L98.7063 27.6972L98.0303 30.448L96.6078 29.5308L95.4966 27.4703L94.0303 27.5518L92.5091 28.0136L91.4183 27.5068L89.2419 24.6284L88.17 24.56L86.1417 26.5504L84.9711 23.8413L83.5398 26.6635L82.6187 26.199L80.859 27.2376L79.2217 27.5857L77.692 30.0003L76.0582 28.2062L74.1721 30.1466L72.4838 29.0545L70.974 27.3558L70.9244 24.5973L70.3366 26.599L69.619 24.352L69.2396 24.5973L67.4378 25.7021L67.4391 25.9234L65.6492 26.6824L64.9866 25.2917L64.2654 25.3648L62.5944 27.4353L61.7255 27.5343L61.5186 28.8357L61.2584 29.0812L59.6879 29.7213L58.25 29.8969L56.055 30.5725L55.5404 26.6593L54.2984 24.6451L52.6024 23.7701L52.6419 25.9087L51.6534 25.53L51.0998 26.3015L49.4722 28.1465L47.5529 26.7366L46.5363 28.9714L45.3457 27.0163L44.2808 30.0615L42.9118 27.3683L41.3829 27.7164L40.6372 25.3176L39.1318 23.657L38.9867 25.0246L37.2385 24.3L36.0774 26.1703L34.6183 26.2003L33.1363 24.4891L31.6464 26.3304L30.161 26.5807L28.5453 26.8773L26.8991 25.4955L25.2814 25.3401L23.4852 26.5898L22.3419 26.4836L22.1684 23.7385L20.3739 26.6093L18.8303 25.0977L17.5439 26.7472L15.9893 26.0752L14.5279 26.346L12.9459 26.8484L11.7602 25.1146L10.3302 24.3401L10.0369 23.3633L9.65005 23.2727L8.75457 22.7912L7.53579 22.6625L6.37193 24.2066L5.98732 23.5116L5.22703 22.5179L3.75496 20.6357L3.20626 24.3584L3.48871 28.3297L2.69136 25.121L0.801878 24.0451L1.02201 20.7202L1.25496 18.0615L0 14.5918L1.38915 12.166L2.52965 10.1798L3.37651 7.90777L4.29222 5.57798L5.19851 2.56865L7.2742 3.95539L8.75457 4.03746L10.2054 3.0641L11.1802 5.1929L12.6613 5.73755L13.1427 5.5224L13.9607 5.75648L14.8114 8.75662L16.057 6.53021L17.1939 6.09593L18.9522 4.8126L20.6782 6.58022L21.944 6.14514L23.5482 6.29196L24.8102 8.93452L26.6056 7.69123L28.3608 6.18239L30.1359 8.15998L31.6516 6.68561L33.1749 6.67365L34.6983 7.16271L36.0193 5.40586L37.0837 7.06869L38.0036 4.81897L39.2522 2.68041L41.0314 2.95175L42.8274 4.01793L43.2122 7.09041L43.7128 9.58316L44.2747 9.15167L43.7142 8.49168L44.1671 9.99494L44.7433 9.64931L46.03 7.74463L47.6747 7.4966L50.0498 9.02158L50.4565 6.81709L50.7704 7.55078L51.5936 5.37219L52.9943 6.63998L54.0307 4.5343L55.3799 2.49137L56.8142 4.21178L57.8099 5.80149L58.703 7.59361L58.8944 10.5749L59.8808 8.79248L60.2583 9.14032L62.3133 8.62594L63.0956 9.6999L63.7202 7.83526L64.8629 6.33061L65.9905 6.0284L67.5508 5.25685L69.1345 5.63216L70.7723 5.7726L71.9811 6.47264L72.1385 6.41428L71.8681 8.76719L74.3281 8.1819L75.2647 11.6022L77.0595 11.0155L78.8081 11.6149L80.2251 9.99852L80.418 7.89224L81.835 6.58022L83.5066 7.54441L84.9667 6.8374L86.1538 7.1432L88.1271 5.43753L90.5264 6.29137L91.2804 7.33285L92.8872 6.74596L94.5432 6.84855L95.4789 10.2446L97.1588 8.72934L98.2337 9.05824L98.8596 10.9352L100.583 11.9783L101.556 8.82914L102.798 6.20549L104.785 5.51124L105.089 6.13816L105.872 6.01306L106.957 3.98267L108.228 4.42971L109.284 6.52324L109.693 4.23847L111.656 3.72191L113.612 5.19848L115.603 3.55676L117.334 5.24071L118.104 5.31162L119.373 6.71151L120.419 8.70682L120.48 8.46856L120.436 9.52419L120.888 8.31318L121.954 11.6697L122.376 9.98158L123.593 8.92755L125.257 11.752L125.947 11.1496L127.676 11.1735L127.693 11.4954L128.365 9.68656L129.847 9.65548L130.743 8.30203L131.987 7.33007L133.339 7.65676L134.017 8.11715L134.485 7.36093L135.717 6.04892L136.73 8.50084L137.802 8.96898L139.672 10.0049L141.427 11.2908L141.409 10.9824L141.613 10.2037L142.463 12.0576L142.838 8.93094L144.52 9.78058L144.881 8.88253L145.445 8.41239L146.633 7.86774L148.014 7.39261L149.324 7.93726L149.573 5.23075L150.289 6.51827L150.451 5.07417L152.153 6.30471L153.542 5.73755L155.044 3.67768L156.44 5.67499L157.893 5.98078L159.282 6.76709L160.852 8.47274L162.261 8.16496L163.528 8.3329L163.913 8.28648L164.427 9.20924L164.962 8.7897L166.447 10.2276L167.946 8.07073L169.344 7.78127L170.869 8.2837L171.182 6.38619L173.085 7.37369L173.864 4.56179L175.653 5.45706L175.9 5.65249L176.075 4.49147L177.988 3.48225L180.222 4.61099L180.799 2.60173L180.953 2.88701L182.04 1.51164L183.409 3.22088L184.575 2.59895L185.137 2.92006L185.642 3.53226L187.445 2.91031L189.238 3.29958L190.374 4.58929L191.193 6.53301L192.646 7.02506L192.348 8.08827L194.349 6.76011L195.432 9.97242L196.925 8.75662L198.358 8.93313L199.957 10.09L201.637 7.53466L202.869 8.92895L203.141 8.06734L204.691 6.46009L206.386 4.46975L208.301 6.47205L208.52 7.84105L210.046 7.92312L210.545 9.34769L212.307 7.45298L213.618 8.20222L215.243 9.3443L216.493 7.28862L217.827 5.9266L219.414 5.1176L220.71 3.19001L222.378 2.4555L223.724 0.0794896L225.605 1.50963L227.239 0.76459L228.665 2.78241L230.231 3.20535L231.829 3.30953L233.359 3.49002L234.752 4.34465L236.043 6.73541L237.604 5.86185L239.094 7.07427L240.681 5.60189L242.272 5.48235L243.864 4.54705L245.095 4.12391L246.793 4.15141L248.491 4.93571L250.266 5.25267L251.708 8.85584L253.206 11.1454L253.169 8.35182L254.632 8.29564L254.503 6.22601L256.83 6.11784L258.089 3.51194L259.649 2.69038L261.236 2.42962L262.603 2.76628L264.199 2.67483L265.466 5.09229L266.775 6.28358L268.539 5.66165L269.579 7.89084L271.44 7.99284L272.277 9.68794L272.275 8.63231L274.188 6.6111L276.092 9.48694L277.26 7.5233L278.824 9.39331L280.783 9.31183L281.746 13.3465L283.111 10.3141L284.926 10.39L285.222 10.8265L286.381 10.5157L287.534 9.18195L289.5 7.63007L291.075 7.24719L292.513 6.27582L293.843 4.41217L295.535 5.19848L297.104 6.57882L298.525 6.52822L299.964 6.61607L301.922 5.24131L303.259 6.85573L304.543 7.02864L305.445 9.40187L307.533 10.4047L308.798 11.6761L310.298 12.5469L310.57 10.7041L311.805 12.6648L313.383 11.0063L314.964 8.98293L316.736 6.95276L318.307 6.58938L319.859 6.28579L321.428 5.69332L322.44 3.32627L323.959 2.69736L325.444 2.07322L326.911 1.09288L327.551 1.96704L328.993 1.50406L330.58 0L332.21 0.849049L332.659 4.3327L333.794 5.81066L334.478 8.09265L334.924 6.95753L336.231 8.21138L337.751 8.06436L339.03 10.194L340.555 9.79333L342.464 11.8863L342.34 7.63644L344.131 7.61612L345.355 6.79098L346.938 6.80095L348.043 9.22259L350.013 8.65064L351.047 10.1734L353.029 8.25063L354.6 8.58371L355.674 6.45013L357.137 5.84015L358.357 4.80842L359.561 3.4464L360.854 4.8632L362.379 3.86394L362.759 6.77067L363.209 7.55835L364.602 9.01382L364.605 6.62027L366.68 7.20913L368.492 6.23578L369.714 6.31666L371.913 6.80513L373.587 6.92307L374.443 9.51424L374.79 11.033L376.087 7.79104L377.611 7.23165L378.665 5.40645L379.77 3.50058L381.34 3.36352L382.778 3.47807L384.281 3.47746L385.173 5.6989L386.756 7.62728L387.585 9.1945L389.256 7.53385L389.664 10.4145L391.851 10.8966L392.5 10.0892L392.921 6.34395L394.813 7.2175L396.695 6.44097L398.619 7.03483L399.138 6.54715L399.977 8.9915L401.439 8.27871L402.693 9.30904L403.971 10.1406L404.328 11.4737L404.098 8.54307L405.841 9.14529L407.166 7.79104L406.935 8.84447L407.567 13.3142L408.42 9.08413L409.875 7.38206L411.203 10.1728L410.441 13.1469L411.558 15.5912L411.855 18.2786L412 21.0919L411.508 23.4062L410.463 24.8327L408.702 25.5172L407.218 26.3774L407.054 25.9665L406.761 26.6318L406.544 27.1456L405.754 29.9216L404.144 28.4493L402.61 29.4296L401.27 27.4823L400.744 27.4661L399.54 26.3733L398.067 24.9467L397.395 26.1744L395.372 23.6528L395.442 26.1414L394.294 27.09L393.367 28.9961L391.674 27.398L390.267 28.1042L388.988 26.5623L387.084 27.6994L386.727 25.0885L386.285 26.0577L384.423 25.9087L382.693 24.8652L382.474 20.5254L380.777 25.0999L378.492 26.7149L376.575 25.8342L375.373 27.7395L373.901 27.4478L372.383 27.6347L371.583 24.4632L370.775 25.3354L369.666 23.6831L368.477 23.9389L367.147 23.352L365.834 25.4688L364.289 25.5039L362.592 26.3157L360.994 25.3521L360.134 24.8483L359.177 23.3078L358.661 23.4891L357.078 24.6656L355.598 25.4597L354.579 26.4583L353.532 28.8521L351.983 28.1437L350.573 29.4951L349.315 27.8821L347.042 27.9708L346.261 25.5651L344.774 26.398L344.309 30.0151L342.636 28.2477L342.543 28.9385L341 27.3895L339.402 28.3017L337.902 27.3269L336.218 28.0319L334.603 27.762L333.245 26.0346L332.718 25.3473L331.326 24.0745L330.149 22.3175L329.03 20.2367L328.097 18.8577L327.441 20.1144L325.743 20.9457L324.345 22.8741L322.204 22.6169L320.932 24.7688L319.495 27.5434L317.523 26.4486L316.382 28.0439L314.908 27.2118L314.635 27.4134L312.799 28.5813L311.545 31.0054L310.078 29.526L309.89 30.2105L308.201 31.0116L306.862 29.4549L305.727 27.5195L303.826 27.8014L302.643 26.4253L301.257 24.0913L299.942 22.9914L297.952 23.4215L296.178 22.6864L294.415 23.047L292.889 24.6128L291.653 27.1L289.679 27.1675L287.892 29.0573L286 27.2173L285.761 28.7923L285.272 28.0255L284.421 30.6067L283.079 33.4495L281.345 31.1114L279.983 29.6222L277.711 29.4226L277.135 26.7611L275.799 26.8217L274.19 27.4464L273.557 28.2132L273.922 28.812L272.422 29.987L271.731 32.0771L271.273 35Z" fill="#FEFEFE"/>
</svg>
